<svg version="1.1" id="Layer_1" xmlns="http://www.w3.org/2000/svg" xmlns:xlink="http://www.w3.org/1999/xlink" x="0px" y="0px"
	 width="100%" viewBox="0 0 640 640" enable-background="new 0 0 640 640" xml:space="preserve">
<path fill="#FFFFFF" opacity="1.000000" stroke="none" 
	d="
M355.000000,641.000000 
	C236.666687,641.000000 118.833374,641.000000 1.000047,641.000000 
	C1.000032,427.666718 1.000032,214.333450 1.000016,1.000133 
	C214.333237,1.000089 427.666473,1.000089 640.999756,1.000044 
	C640.999878,214.333191 640.999878,427.666382 640.999939,640.999756 
	C545.833313,641.000000 450.666656,641.000000 355.000000,641.000000 
M308.119812,54.737038 
	C308.136993,55.470779 308.154175,56.204517 308.012207,57.796970 
	C307.725006,62.180653 307.437775,66.564339 307.018799,71.803490 
	C306.675018,76.258018 306.578308,80.753815 305.845276,85.143341 
	C305.608063,86.563652 303.864929,88.570496 302.529755,88.822838 
	C297.060120,89.856621 291.477051,90.278305 285.944763,90.994873 
	C269.582092,93.114235 254.002686,97.973541 239.141464,105.010017 
	C216.590073,115.687637 196.796783,130.033524 180.339035,149.012375 
	C170.373611,160.504379 161.803253,172.809128 154.922104,186.331940 
	C146.697128,202.495560 141.307022,219.615509 138.107712,237.414291 
	C137.026642,243.428711 136.686600,249.576324 136.005905,255.680908 
	C152.342880,255.680908 167.928146,255.680908 183.277130,255.680908 
	C184.215012,248.840118 185.044678,242.336960 186.006439,235.853394 
	C189.777588,210.430847 199.463470,187.240021 213.659195,166.041702 
	C226.141739,147.401627 241.513290,131.256424 259.643860,117.925903 
	C274.089020,107.305069 288.927124,97.357414 306.240448,91.733444 
	C310.514740,90.345016 314.432587,89.896126 318.543915,91.767426 
	C325.689606,95.019882 333.094330,97.794746 339.957611,101.558998 
	C359.743408,112.410782 377.305420,126.123650 392.573303,142.869354 
	C406.454651,158.094330 418.034882,174.719711 426.263977,193.633926 
	C432.306091,207.521378 437.099518,221.773819 439.022217,236.879974 
	C439.867126,243.518478 440.800049,250.145798 441.682312,256.698669 
	C458.805389,256.698669 475.746582,256.698669 493.111511,256.698669 
	C491.970795,248.092392 491.398895,239.722488 489.683105,231.594070 
	C484.554169,207.296799 475.211304,184.657516 460.642944,164.474197 
	C454.301483,155.688568 447.396729,147.148499 439.718109,139.535416 
	C432.408691,132.288376 424.172119,125.769348 415.583435,120.076408 
	C406.517914,114.067406 396.554138,109.413559 386.332397,103.838913 
	C373.872589,97.835602 360.871490,93.617462 346.629517,91.266800 
	C338.453552,90.508698 330.263153,89.867027 322.117950,88.860107 
	C320.968384,88.717995 319.265839,86.879784 319.131927,85.680107 
	C318.178497,77.138428 317.566315,68.558662 316.970276,59.113621 
	C316.594025,55.735199 316.217804,52.356777 315.957825,48.082794 
	C315.579620,42.138660 315.337708,36.180428 314.725525,30.260487 
	C314.576050,28.815002 313.212372,27.495081 312.406921,26.117430 
	C311.632019,27.514315 310.317017,28.857843 310.172882,30.317047 
	C309.425751,37.879452 308.977722,45.471405 308.177734,53.507210 
	C308.208679,53.676998 308.239624,53.846790 308.119812,54.737038 
M411.003571,574.047913 
	C411.003571,574.047913 410.928223,574.044739 411.417969,574.761475 
	C417.167511,574.761475 422.917084,574.761475 428.999786,574.761475 
	C428.999786,572.647949 428.999817,571.006897 428.999817,569.365845 
	C428.999786,484.424652 429.000488,399.483429 428.993439,314.542236 
	C428.993317,313.045990 428.899933,311.549774 428.989746,309.118835 
	C428.989746,302.520264 428.989746,295.921722 428.989746,289.310425 
	C422.334412,289.310425 416.305359,289.310425 410.167755,289.310425 
	C410.167755,291.093323 410.167755,292.569519 410.035706,294.967957 
	C410.023804,386.633026 410.007782,478.298065 410.039124,569.963135 
	C410.039581,571.339111 410.627563,572.714783 411.003571,574.047913 
M121.018951,580.899475 
	C121.018951,583.831543 121.018951,586.763611 121.018951,589.689331 
	C250.329132,589.689331 378.980835,589.689331 507.834351,589.689331 
	C507.834351,586.250305 507.834351,583.117188 507.488861,579.209351 
	C506.662140,579.139893 505.835388,579.009583 505.008667,579.009521 
	C378.378967,578.997864 251.749268,578.992615 125.119591,579.034241 
	C123.796036,579.034668 122.472687,579.656494 121.018951,580.899475 
M163.085983,289.034302 
	C157.824707,289.034302 152.563416,289.034302 147.000763,289.034302 
	C147.000763,291.338531 147.000763,292.981995 147.000763,294.625427 
	C147.000900,386.092651 147.000153,477.559875 147.008026,569.027100 
	C147.008179,570.689941 147.111206,572.352722 147.510742,574.790344 
	C153.255966,574.790344 159.001205,574.790344 164.843628,574.790344 
	C164.910873,573.291992 164.993591,572.308472 164.993652,571.324951 
	C164.999771,478.596283 165.003662,385.867615 164.958923,293.138977 
	C164.958282,291.814545 164.343796,290.490479 163.085983,289.034302 
M457.510773,574.790405 
	C463.257050,574.790405 469.003326,574.790405 474.999847,574.790405 
	C474.999847,572.618713 474.999878,570.970215 474.999847,569.321655 
	C474.998901,484.896667 474.999023,400.471649 474.990570,316.046661 
	C474.990356,314.051178 474.893555,312.055664 474.985504,309.125214 
	C474.985504,302.529205 474.985504,295.933228 474.985504,289.405426 
	C468.618988,289.405426 462.907135,289.405426 457.002472,289.405426 
	C457.002472,291.298798 457.002472,292.789459 457.002441,294.280090 
	C457.001740,386.029999 457.000214,477.779877 457.007141,569.529785 
	C457.007233,571.025146 457.110535,572.520569 457.510773,574.790405 
M107.037971,600.911255 
	C107.037971,602.823181 107.037971,604.735107 107.037971,606.835388 
	C116.993553,606.835388 126.487007,606.835388 136.910126,606.980774 
	C265.119171,606.980774 393.328186,606.980774 521.667358,606.980774 
	C521.667358,602.432495 521.667358,598.386536 521.667358,594.293335 
	C383.319061,594.293335 245.309082,594.293335 107.163872,594.293335 
	C107.163872,596.396729 107.163872,598.206360 107.037971,600.911255 
M258.961884,472.154602 
	C258.356049,461.874207 254.163727,451.403259 260.373474,441.474457 
	C257.468689,451.447784 260.948395,461.196899 261.576233,471.023773 
	C261.921173,476.422668 262.460663,481.324249 259.091675,486.495483 
	C254.951736,492.850067 251.069244,499.896881 249.337509,507.182159 
	C246.145813,520.609497 240.953445,532.936584 234.114197,544.802490 
	C228.266205,554.948608 220.225098,561.618469 208.005829,563.436401 
	C208.005829,472.026428 208.005829,380.766815 208.005829,289.371155 
	C201.541534,289.371155 195.502518,289.371155 189.122620,289.371155 
	C189.122620,291.714294 189.122620,293.692108 189.122604,295.669922 
	C189.121857,386.001129 189.130142,476.332367 189.076782,566.663574 
	C189.075180,569.373474 188.428101,572.083069 188.096222,574.681274 
	C230.905640,574.681274 274.313171,574.681274 317.993073,574.681274 
	C317.993073,573.017639 318.119385,571.685486 317.959503,570.388550 
	C317.780121,568.933472 317.172333,567.525330 317.042297,566.070801 
	C315.532440,549.179688 311.691132,532.807678 306.026428,516.858459 
	C302.025940,505.594940 296.943359,494.969757 287.438965,487.101379 
	C286.707703,486.495972 286.150421,485.325592 286.054108,484.363556 
	C285.188660,475.721741 289.403595,471.096069 297.994965,470.927551 
	C299.772919,470.892731 301.598114,469.916779 303.303406,470.136475 
	C309.064392,470.878662 315.499725,467.129883 320.600403,472.742126 
	C321.356079,473.573608 322.986176,473.729218 324.254883,473.956177 
	C332.426544,475.418152 340.610168,476.812897 349.208282,478.302216 
	C348.247528,486.535248 347.614624,494.383057 346.293579,502.113281 
	C345.747589,505.308289 346.838715,506.395081 349.416046,506.925171 
	C350.808807,507.211639 352.268890,507.170776 354.280640,507.321106 
	C352.653076,530.295715 355.565125,552.609497 358.236420,574.837524 
	C365.837311,574.837524 372.653168,574.837524 379.709442,574.837524 
	C374.809540,552.460449 372.738220,530.058167 374.368561,507.349823 
	C375.962921,507.080353 377.363190,506.843658 378.001007,506.735870 
	C378.001007,494.182434 378.517151,482.071167 377.848480,470.025665 
	C377.240814,459.078888 375.627411,448.159058 373.916809,437.312592 
	C372.785095,430.136688 367.884277,427.344086 359.480133,428.003510 
	C354.139435,428.422607 349.807007,433.341156 348.941132,439.192261 
	C348.052704,445.196259 346.640442,451.122711 345.311249,457.819611 
	C337.942688,454.247772 331.898712,451.328369 325.863922,448.390167 
	C317.563477,444.348846 312.250122,446.850739 310.342896,456.011322 
	C304.141449,456.492950 297.843964,456.982056 291.620972,457.465363 
	C287.465698,437.250641 274.850342,433.980774 263.234406,438.526978 
	C262.196442,435.904053 261.203217,433.394196 260.009766,430.378265 
	C273.475647,438.498718 282.054993,434.953094 287.830505,429.504944 
	C294.086182,423.603912 295.177338,413.240692 289.969666,405.397888 
	C282.776794,394.565308 272.568115,395.465637 261.633728,400.225281 
	C261.960449,398.531738 262.181519,397.385956 262.521729,395.622589 
	C251.581192,403.406952 245.437592,412.967957 245.987625,426.190521 
	C246.622574,441.454529 243.908630,456.297913 240.007416,471.753265 
	C239.902328,473.280212 239.481262,474.864868 239.747726,476.323944 
	C240.811630,482.149567 244.468964,485.697601 249.826080,488.085480 
	C252.539795,489.295135 253.883423,488.532990 255.823471,486.794678 
	C260.259247,482.820221 259.600342,477.975342 258.961884,472.154602 
M264.891266,256.985931 
	C296.905945,256.985931 328.920654,256.985931 362.005432,256.985931 
	C362.005432,251.909378 362.408295,246.909348 361.929871,241.995117 
	C360.495056,227.256516 359.042542,212.505905 356.997955,197.843491 
	C353.589294,173.398727 345.894531,150.276352 334.173706,128.531601 
	C328.359222,117.744408 321.701233,107.565773 312.191895,98.827881 
	C310.164795,101.036438 308.238403,103.107735 306.346375,105.209976 
	C305.570251,106.072304 304.847443,106.985199 304.135681,107.902473 
	C290.763916,125.135231 281.689514,144.529907 275.353302,165.287018 
	C269.384857,184.839355 265.575897,204.803543 263.976624,225.193573 
	C263.461792,231.758057 262.343048,238.295242 262.192444,244.860779 
	C262.100586,248.866669 263.328094,252.902817 264.891266,256.985931 
M227.195129,156.735352 
	C204.351028,185.796753 191.205612,218.533630 188.810608,256.355164 
	C212.338043,256.355164 234.982086,256.355164 257.916718,256.355164 
	C256.952026,228.159286 260.608002,200.583557 267.697571,173.369278 
	C274.874878,145.818100 286.132385,120.377228 304.639099,98.112305 
	C297.061493,101.312683 289.732910,104.800323 282.748749,108.877861 
	C261.516449,121.273827 243.308212,137.265839 227.195129,156.735352 
M331.999756,114.512421 
	C338.343964,127.277000 345.812683,139.618347 350.808014,152.890594 
	C362.743042,184.601257 367.258911,217.813995 367.752472,251.600693 
	C367.781677,253.598267 367.235504,255.604248 367.017853,257.169189 
	C390.281464,257.169189 412.958252,257.169189 436.230865,257.169189 
	C433.796234,222.444977 422.942108,191.714127 403.025726,164.173431 
	C381.608246,134.556992 353.760803,113.038567 319.416565,97.363777 
	C324.037292,103.656960 327.805939,108.789635 331.999756,114.512421 
M318.500000,273.003418 
	C350.149353,273.002197 381.798737,273.022766 413.448059,272.993683 
	C445.763702,272.963989 478.079376,272.908905 510.394623,272.767273 
	C512.220947,272.759247 514.809265,272.451019 515.715942,271.266663 
	C517.938477,268.363647 519.384399,264.866119 521.022583,261.830505 
	C383.249023,261.830505 245.869888,261.830505 108.328529,261.830505 
	C110.681023,270.385254 115.063972,273.137421 123.613327,273.084045 
	C188.239868,272.680542 252.870590,272.946259 318.500000,273.003418 
M153.499146,276.999420 
	C142.739029,276.999420 131.978897,276.999420 121.220795,276.999420 
	C121.220795,279.632294 121.220795,281.571106 121.220795,283.551208 
	C121.893227,283.737640 122.350418,283.964111 122.814308,283.978790 
	C152.970047,284.933044 183.195953,282.050934 213.318115,285.859863 
	C218.462814,286.510468 223.836838,285.079407 229.108200,285.038879 
	C270.011261,284.724213 310.914917,284.439209 351.818878,284.316833 
	C364.865784,284.277771 377.914307,284.945953 390.961914,284.939789 
	C401.771301,284.934692 412.579285,284.223145 423.389862,284.159363 
	C449.871948,284.003174 476.355194,284.040405 502.837952,284.000366 
	C504.448181,283.997925 506.058380,284.000031 507.661255,284.000031 
	C507.661255,281.360870 507.661255,279.313812 507.661255,276.999359 
	C389.696625,276.999359 272.097534,276.999359 153.499146,276.999420 
M371.512848,420.989929 
	C379.051605,412.745514 378.994690,399.216278 371.424347,391.919037 
	C363.091095,383.886414 350.010254,384.345917 342.165161,392.118317 
	C334.510193,399.702301 334.679993,412.471863 341.076630,419.727386 
	C349.362274,429.125488 363.357819,429.164581 371.512848,420.989929 
z"/>
<path fill="#AB8A63" opacity="1.000000" stroke="none" 
	d="
M240.165771,471.000671 
	C243.908630,456.297913 246.622574,441.454529 245.987625,426.190521 
	C245.437592,412.967957 251.581192,403.406952 262.521729,395.622589 
	C262.181519,397.385956 261.960449,398.531738 261.633728,400.225281 
	C272.568115,395.465637 282.776794,394.565308 289.969666,405.397888 
	C295.177338,413.240692 294.086182,423.603912 287.830505,429.504944 
	C282.054993,434.953094 273.475647,438.498718 260.009766,430.378265 
	C261.203217,433.394196 262.196442,435.904053 263.234406,438.526978 
	C274.850342,433.980774 287.465698,437.250641 291.620972,457.465363 
	C297.843964,456.982056 304.141449,456.492950 310.342896,456.011322 
	C312.250122,446.850739 317.563477,444.348846 325.863922,448.390167 
	C331.898712,451.328369 337.942688,454.247772 345.311249,457.819611 
	C346.640442,451.122711 348.052704,445.196259 348.941132,439.192261 
	C349.807007,433.341156 354.139435,428.422607 359.480133,428.003510 
	C367.884277,427.344086 372.785095,430.136688 373.916809,437.312592 
	C375.627411,448.159058 377.240814,459.078888 377.848480,470.025665 
	C378.517151,482.071167 378.001007,494.182434 378.001007,506.735870 
	C377.363190,506.843658 375.962921,507.080353 374.368561,507.349823 
	C372.738220,530.058167 374.809540,552.460449 379.709442,574.837524 
	C372.653168,574.837524 365.837311,574.837524 358.236420,574.837524 
	C355.565125,552.609497 352.653076,530.295715 354.280640,507.321106 
	C352.268890,507.170776 350.808807,507.211639 349.416046,506.925171 
	C346.838715,506.395081 345.747589,505.308289 346.293579,502.113281 
	C347.614624,494.383057 348.247528,486.535248 349.208282,478.302216 
	C340.610168,476.812897 332.426544,475.418152 324.254883,473.956177 
	C322.986176,473.729218 321.356079,473.573608 320.600403,472.742126 
	C315.499725,467.129883 309.064392,470.878662 303.303406,470.136475 
	C301.598114,469.916779 299.772919,470.892731 297.994965,470.927551 
	C289.403595,471.096069 285.188660,475.721741 286.054108,484.363556 
	C286.150421,485.325592 286.707703,486.495972 287.438965,487.101379 
	C296.943359,494.969757 302.025940,505.594940 306.026428,516.858459 
	C311.691132,532.807678 315.532440,549.179688 317.042297,566.070801 
	C317.172333,567.525330 317.780121,568.933472 317.959503,570.388550 
	C318.119385,571.685486 317.993073,573.017639 317.993073,574.681274 
	C274.313171,574.681274 230.905640,574.681274 188.096222,574.681274 
	C188.428101,572.083069 189.075180,569.373474 189.076782,566.663574 
	C189.130142,476.332367 189.121857,386.001129 189.122604,295.669922 
	C189.122620,293.692108 189.122620,291.714294 189.122620,289.371155 
	C195.502518,289.371155 201.541534,289.371155 208.005829,289.371155 
	C208.005829,380.766815 208.005829,472.026428 208.005829,563.436401 
	C220.225098,561.618469 228.266205,554.948608 234.114197,544.802490 
	C240.953445,532.936584 246.145813,520.609497 249.337509,507.182159 
	C251.069244,499.896881 254.951736,492.850067 259.091675,486.495483 
	C262.460663,481.324249 261.921173,476.422668 261.576233,471.023773 
	C260.948395,461.196899 257.468689,451.447784 260.373474,441.474457 
	C254.163727,451.403259 258.356049,461.874207 258.509125,472.518799 
	C252.092834,472.255554 246.129303,471.628113 240.165771,471.000671 
M258.722595,429.798828 
	C258.831635,429.469940 258.940643,429.141083 259.049652,428.812195 
	C258.828766,428.747711 258.607849,428.683258 258.386963,428.618774 
	C258.324158,428.887573 258.261383,429.156403 258.722595,429.798828 
M259.281036,402.475128 
	C258.917236,402.541077 258.553467,402.606995 258.189667,402.672913 
	C258.284424,402.922607 258.379181,403.172333 258.473907,403.422028 
	C258.690613,403.313782 258.907318,403.205536 259.281036,402.475128 
z"/>
<path fill="#AA8962" opacity="1.000000" stroke="none" 
	d="
M316.845490,59.991020 
	C317.566315,68.558662 318.178497,77.138428 319.131927,85.680107 
	C319.265839,86.879784 320.968384,88.717995 322.117950,88.860107 
	C330.263153,89.867027 338.453552,90.508698 346.591309,91.809517 
	C346.970978,93.386711 347.109741,95.018761 347.849457,95.364296 
	C356.329285,99.325439 364.668030,103.857521 373.555298,106.552780 
	C377.417053,107.723930 383.375885,109.549873 386.982788,104.167709 
	C396.554138,109.413559 406.517914,114.067406 415.583435,120.076408 
	C424.172119,125.769348 432.408691,132.288376 439.718109,139.535416 
	C447.396729,147.148499 454.301483,155.688568 460.642944,164.474197 
	C475.211304,184.657516 484.554169,207.296799 489.683105,231.594070 
	C491.398895,239.722488 491.970795,248.092392 493.111511,256.698669 
	C475.746582,256.698669 458.805389,256.698669 441.682312,256.698669 
	C440.800049,250.145798 439.867126,243.518478 439.022217,236.879974 
	C437.099518,221.773819 432.306091,207.521378 426.263977,193.633926 
	C418.034882,174.719711 406.454651,158.094330 392.573303,142.869354 
	C377.305420,126.123650 359.743408,112.410782 339.957611,101.558998 
	C333.094330,97.794746 325.689606,95.019882 318.543915,91.767426 
	C314.432587,89.896126 310.514740,90.345016 306.240448,91.733444 
	C288.927124,97.357414 274.089020,107.305069 259.643860,117.925903 
	C241.513290,131.256424 226.141739,147.401627 213.659195,166.041702 
	C199.463470,187.240021 189.777588,210.430847 186.006439,235.853394 
	C185.044678,242.336960 184.215012,248.840118 183.277130,255.680908 
	C167.928146,255.680908 152.342880,255.680908 136.005905,255.680908 
	C136.686600,249.576324 137.026642,243.428711 138.107712,237.414291 
	C141.307022,219.615509 146.697128,202.495560 154.922104,186.331940 
	C161.803253,172.809128 170.373611,160.504379 180.339035,149.012375 
	C196.796783,130.033524 216.590073,115.687637 239.141464,105.010017 
	C254.002686,97.973541 269.582092,93.114235 285.944763,90.994873 
	C291.477051,90.278305 297.060120,89.856621 302.529755,88.822838 
	C303.864929,88.570496 305.608063,86.563652 305.845276,85.143341 
	C306.578308,80.753815 306.675018,76.258018 307.332245,71.120926 
	C308.478088,65.050148 311.908508,61.154533 316.845490,59.991020 
z"/>
<path fill="#AA8962" opacity="1.000000" stroke="none" 
	d="
M264.427155,256.955658 
	C263.328094,252.902817 262.100586,248.866669 262.192444,244.860779 
	C262.343048,238.295242 263.461792,231.758057 263.976624,225.193573 
	C265.575897,204.803543 269.384857,184.839355 275.353302,165.287018 
	C281.689514,144.529907 290.763916,125.135231 304.135681,107.902473 
	C304.847443,106.985199 305.570251,106.072304 306.346375,105.209976 
	C308.238403,103.107735 310.164795,101.036438 312.191895,98.827881 
	C321.701233,107.565773 328.359222,117.744408 334.173706,128.531601 
	C345.894531,150.276352 353.589294,173.398727 356.997955,197.843491 
	C359.042542,212.505905 360.495056,227.256516 361.929871,241.995117 
	C362.408295,246.909348 362.005432,251.909378 362.005432,256.985931 
	C328.920654,256.985931 296.905945,256.985931 264.427155,256.955658 
z"/>
<path fill="#AA8962" opacity="1.000000" stroke="none" 
	d="
M227.396500,156.437515 
	C243.308212,137.265839 261.516449,121.273827 282.748749,108.877861 
	C289.732910,104.800323 297.061493,101.312683 304.639099,98.112305 
	C286.132385,120.377228 274.874878,145.818100 267.697571,173.369278 
	C260.608002,200.583557 256.952026,228.159286 257.916718,256.355164 
	C234.982086,256.355164 212.338043,256.355164 188.810608,256.355164 
	C191.205612,218.533630 204.351028,185.796753 227.396500,156.437515 
z"/>
<path fill="#AA8962" opacity="1.000000" stroke="none" 
	d="
M331.787170,114.217361 
	C327.805939,108.789635 324.037292,103.656960 319.416565,97.363777 
	C353.760803,113.038567 381.608246,134.556992 403.025726,164.173431 
	C422.942108,191.714127 433.796234,222.444977 436.230865,257.169189 
	C412.958252,257.169189 390.281464,257.169189 367.017853,257.169189 
	C367.235504,255.604248 367.781677,253.598267 367.752472,251.600693 
	C367.258911,217.813995 362.743042,184.601257 350.808014,152.890594 
	C345.812683,139.618347 338.343964,127.277000 331.787170,114.217361 
z"/>
<path fill="#AA8962" opacity="1.000000" stroke="none" 
	d="
M107.163872,600.015991 
	C107.163872,598.206360 107.163872,596.396729 107.163872,594.293335 
	C245.309082,594.293335 383.319061,594.293335 521.667358,594.293335 
	C521.667358,598.386536 521.667358,602.432495 521.667358,606.980774 
	C393.328186,606.980774 265.119171,606.980774 136.374451,606.559814 
	C135.023834,605.654846 134.260727,604.892883 133.385986,604.729797 
	C124.655823,603.101990 115.907242,601.572998 107.163872,600.015991 
z"/>
<path fill="#AA8962" opacity="1.000000" stroke="none" 
	d="
M410.167755,294.045715 
	C410.167755,292.569519 410.167755,291.093323 410.167755,289.310425 
	C416.305359,289.310425 422.334412,289.310425 428.989746,289.310425 
	C428.989746,295.921722 428.989746,302.520264 428.653076,309.896973 
	C428.210938,312.493713 428.013550,314.312256 428.013214,316.130859 
	C427.997894,395.623901 428.000000,475.116943 428.000000,554.609985 
	C428.000000,559.442871 427.725464,564.296265 428.083221,569.102478 
	C428.392273,573.254333 426.729828,574.313354 422.922302,574.058411 
	C418.941833,573.791748 414.927673,574.028198 410.928223,574.044739 
	C410.928223,574.044739 411.003571,574.047913 410.991699,573.593567 
	C410.984589,481.698151 410.993561,390.257111 410.959747,298.816040 
	C410.959137,297.225830 410.443207,295.635834 410.167755,294.045715 
z"/>
<path fill="#AA8962" opacity="1.000000" stroke="none" 
	d="
M457.165649,574.015991 
	C457.110535,572.520569 457.007233,571.025146 457.007141,569.529785 
	C457.000214,477.779877 457.001740,386.029999 457.002441,294.280090 
	C457.002472,292.789459 457.002472,291.298798 457.002472,289.405426 
	C462.907135,289.405426 468.618988,289.405426 474.985504,289.405426 
	C474.985504,295.933228 474.985504,302.529205 474.648926,309.904236 
	C474.208527,312.667236 474.014252,314.651123 474.013885,316.635101 
	C473.998413,399.888458 474.000336,483.141846 473.999969,566.395203 
	C473.999969,567.560730 473.880798,568.740784 474.021118,569.889099 
	C474.438599,573.305481 472.786438,574.198853 469.651215,574.049500 
	C465.498230,573.851685 461.328308,574.010437 457.165649,574.015991 
z"/>
<path fill="#AA8962" opacity="1.000000" stroke="none" 
	d="
M147.166229,574.015564 
	C147.111206,572.352722 147.008179,570.689941 147.008026,569.027100 
	C147.000153,477.559875 147.000900,386.092651 147.000763,294.625427 
	C147.000763,292.981995 147.000763,291.338531 147.000763,289.034302 
	C152.563416,289.034302 157.824707,289.034302 163.545807,289.557190 
	C164.003738,382.182953 164.001862,474.285828 163.999863,566.388672 
	C163.999832,567.721069 163.895416,569.062988 164.017700,570.383972 
	C164.288971,573.314331 162.852173,574.123352 160.155930,574.037109 
	C155.830231,573.898682 151.496536,574.009827 147.166229,574.015564 
z"/>
<path fill="#AB8B64" opacity="1.000000" stroke="none" 
	d="
M318.000000,273.003235 
	C252.870590,272.946259 188.239868,272.680542 123.613327,273.084045 
	C115.063972,273.137421 110.681023,270.385254 108.328529,261.830505 
	C245.869888,261.830505 383.249023,261.830505 521.022583,261.830505 
	C519.384399,264.866119 517.938477,268.363647 515.715942,271.266663 
	C514.809265,272.451019 512.220947,272.759247 510.394623,272.767273 
	C478.079376,272.908905 445.763702,272.963989 413.448059,272.993683 
	C381.798737,273.022766 350.149353,273.002197 318.000000,273.003235 
z"/>
<path fill="#AA8962" opacity="1.000000" stroke="none" 
	d="
M507.834351,579.984070 
	C507.834351,583.117188 507.834351,586.250305 507.834351,589.689331 
	C378.980835,589.689331 250.329132,589.689331 121.018951,589.689331 
	C121.018951,586.763611 121.018951,583.831543 121.542236,580.450073 
	C250.655136,579.995117 379.244751,579.989624 507.834351,579.984070 
z"/>
<path fill="#AA8962" opacity="1.000000" stroke="none" 
	d="
M153.998795,276.999390 
	C272.097534,276.999359 389.696625,276.999359 507.661255,276.999359 
	C507.661255,279.313812 507.661255,281.360870 507.661255,284.000031 
	C506.058380,284.000031 504.448181,283.997925 502.837952,284.000366 
	C476.355194,284.040405 449.871948,284.003174 423.389862,284.159363 
	C412.579285,284.223145 401.771301,284.934692 390.961914,284.939789 
	C377.914307,284.945953 364.865784,284.277771 351.818878,284.316833 
	C310.914917,284.439209 270.011261,284.724213 229.108200,285.038879 
	C223.836838,285.079407 218.462814,286.510468 213.318115,285.859863 
	C183.195953,282.050934 152.970047,284.933044 122.814308,283.978790 
	C122.350418,283.964111 121.893227,283.737640 121.220795,283.551208 
	C121.220795,281.571106 121.220795,279.632294 121.220795,276.999420 
	C131.978897,276.999420 142.739029,276.999420 153.998795,276.999390 
z"/>
<path fill="#AA8962" opacity="1.000000" stroke="none" 
	d="
M371.251160,421.251526 
	C363.357819,429.164581 349.362274,429.125488 341.076630,419.727386 
	C334.679993,412.471863 334.510193,399.702301 342.165161,392.118317 
	C350.010254,384.345917 363.091095,383.886414 371.424347,391.919037 
	C378.994690,399.216278 379.051605,412.745514 371.251160,421.251526 
z"/>
<path fill="#997E5C" opacity="1.000000" stroke="none" 
	d="
M507.661621,579.596680 
	C379.244751,579.989624 250.655136,579.995117 121.607391,579.994446 
	C122.472687,579.656494 123.796036,579.034668 125.119591,579.034241 
	C251.749268,578.992615 378.378967,578.997864 505.008667,579.009521 
	C505.835388,579.009583 506.662140,579.139893 507.661621,579.596680 
z"/>
<path fill="#997E5C" opacity="1.000000" stroke="none" 
	d="
M147.338486,574.402954 
	C151.496536,574.009827 155.830231,573.898682 160.155930,574.037109 
	C162.852173,574.123352 164.288971,573.314331 164.017700,570.383972 
	C163.895416,569.062988 163.999832,567.721069 163.999863,566.388672 
	C164.001862,474.285828 164.003738,382.182953 164.010712,289.623169 
	C164.343796,290.490479 164.958282,291.814545 164.958923,293.138977 
	C165.003662,385.867615 164.999771,478.596283 164.993652,571.324951 
	C164.993591,572.308472 164.910873,573.291992 164.843628,574.790344 
	C159.001205,574.790344 153.255966,574.790344 147.338486,574.402954 
z"/>
<path fill="#9C805E" opacity="1.000000" stroke="none" 
	d="
M411.173096,574.403076 
	C414.927673,574.028198 418.941833,573.791748 422.922302,574.058411 
	C426.729828,574.313354 428.392273,573.254333 428.083221,569.102478 
	C427.725464,564.296265 428.000000,559.442871 428.000000,554.609985 
	C428.000000,475.116943 427.997894,395.623901 428.013214,316.130859 
	C428.013550,314.312256 428.210938,312.493713 428.583252,310.364319 
	C428.899933,311.549774 428.993317,313.045990 428.993439,314.542236 
	C429.000488,399.483429 428.999786,484.424652 428.999817,569.365845 
	C428.999817,571.006897 428.999786,572.647949 428.999786,574.761475 
	C422.917084,574.761475 417.167511,574.761475 411.173096,574.403076 
z"/>
<path fill="#997E5C" opacity="1.000000" stroke="none" 
	d="
M457.338196,574.403198 
	C461.328308,574.010437 465.498230,573.851685 469.651215,574.049500 
	C472.786438,574.198853 474.438599,573.305481 474.021118,569.889099 
	C473.880798,568.740784 473.999969,567.560730 473.999969,566.395203 
	C474.000336,483.141846 473.998413,399.888458 474.013885,316.635101 
	C474.014252,314.651123 474.208527,312.667236 474.577057,310.371735 
	C474.893555,312.055664 474.990356,314.051178 474.990570,316.046661 
	C474.999023,400.471649 474.998901,484.896667 474.999847,569.321655 
	C474.999878,570.970215 474.999847,572.618713 474.999847,574.790405 
	C469.003326,574.790405 463.257050,574.790405 457.338196,574.403198 
z"/>
<path fill="#958572" opacity="1.000000" stroke="none" 
	d="
M410.101746,294.506836 
	C410.443207,295.635834 410.959137,297.225830 410.959747,298.816040 
	C410.993561,390.257111 410.984589,481.698151 410.960602,573.614929 
	C410.627563,572.714783 410.039581,571.339111 410.039124,569.963135 
	C410.007782,478.298065 410.023804,386.633026 410.101746,294.506836 
z"/>
<path fill="#AA8962" opacity="1.000000" stroke="none" 
	d="
M240.086594,471.376953 
	C246.129303,471.628113 252.092834,472.255554 258.445282,472.940491 
	C259.600342,477.975342 260.259247,482.820221 255.823471,486.794678 
	C253.883423,488.532990 252.539795,489.295135 249.826080,488.085480 
	C244.468964,485.697601 240.811630,482.149567 239.747726,476.323944 
	C239.481262,474.864868 239.902328,473.280212 240.086594,471.376953 
z"/>
<path fill="#9C805E" opacity="1.000000" stroke="none" 
	d="
M386.657593,104.003311 
	C383.375885,109.549873 377.417053,107.723930 373.555298,106.552780 
	C364.668030,103.857521 356.329285,99.325439 347.849457,95.364296 
	C347.109741,95.018761 346.970978,93.386711 346.826050,92.147804 
	C360.871490,93.617462 373.872589,97.835602 386.657593,104.003311 
z"/>
<path fill="#877054" opacity="1.000000" stroke="none" 
	d="
M308.425476,53.053059 
	C308.977722,45.471405 309.425751,37.879452 310.172882,30.317047 
	C310.317017,28.857843 311.632019,27.514315 312.406921,26.117432 
	C313.212372,27.495081 314.576050,28.815002 314.725525,30.260487 
	C315.337708,36.180428 315.579620,42.138660 315.565186,48.581596 
	C313.115387,50.720539 311.058228,52.360676 309.000519,54.000404 
	C309.000000,54.000000 308.998871,53.999214 308.952820,53.813713 
	C308.819000,53.375675 308.658539,53.183956 308.425476,53.053059 
z"/>
<path fill="#997E5C" opacity="1.000000" stroke="none" 
	d="
M107.100922,600.463623 
	C115.907242,601.572998 124.655823,603.101990 133.385986,604.729797 
	C134.260727,604.892883 135.023834,605.654846 135.909607,606.487061 
	C126.487007,606.835388 116.993553,606.835388 107.037971,606.835388 
	C107.037971,604.735107 107.037971,602.823181 107.100922,600.463623 
z"/>
<path fill="#9C805E" opacity="1.000000" stroke="none" 
	d="
M309.001038,54.000809 
	C311.058228,52.360676 313.115387,50.720539 315.507080,49.029377 
	C316.217804,52.356777 316.594025,55.735199 316.907898,59.552322 
	C311.908508,61.154533 308.478088,65.050148 307.398132,70.693192 
	C307.437775,66.564339 307.725006,62.180653 308.322937,57.149460 
	C308.756134,55.668240 308.878571,54.834522 309.001038,54.000809 
z"/>
<path fill="#877054" opacity="1.000000" stroke="none" 
	d="
M309.000488,54.000404 
	C308.878571,54.834522 308.756134,55.668240 308.402527,56.720108 
	C308.154175,56.204517 308.136993,55.470779 308.377380,54.378639 
	C308.634949,54.020245 308.998871,53.999214 308.998871,53.999214 
	C308.998871,53.999214 309.000000,54.000000 309.000488,54.000404 
z"/>
<path fill="#9C805E" opacity="1.000000" stroke="none" 
	d="
M308.952820,53.813713 
	C308.998871,53.999214 308.634949,54.020245 308.452759,54.018410 
	C308.239624,53.846790 308.208679,53.676998 308.301575,53.280136 
	C308.658539,53.183956 308.819000,53.375675 308.952820,53.813713 
z"/>
<path fill="#FFFFFF" opacity="1.000000" stroke="none" 
	d="
M258.460571,429.612000 
	C258.261383,429.156403 258.324158,428.887573 258.386963,428.618774 
	C258.607849,428.683258 258.828766,428.747711 259.049652,428.812195 
	C258.940643,429.141083 258.831635,429.469940 258.460571,429.612000 
z"/>
<path fill="#FFFFFF" opacity="1.000000" stroke="none" 
	d="
M259.202515,402.786194 
	C258.907318,403.205536 258.690613,403.313782 258.473907,403.422028 
	C258.379181,403.172333 258.284424,402.922607 258.189667,402.672913 
	C258.553467,402.606995 258.917236,402.541077 259.202515,402.786194 
z"/>
</svg>