<svg version="1.1" id="Layer_1" xmlns="http://www.w3.org/2000/svg" xmlns:xlink="http://www.w3.org/1999/xlink" x="0px" y="0px"
	 width="100%" viewBox="0 0 980 880" enable-background="new 0 0 980 880" xml:space="preserve">
<path fill="#FFFFFF" opacity="1.000000" stroke="none" 
	d="
M981.000000,541.000000 
	C981.000000,654.296936 981.000000,767.593872 981.000000,881.000000 
	C655.974182,881.000000 330.948334,881.000000 5.688494,880.682495 
	C61.983562,869.776917 118.512650,859.188843 175.280060,848.556091 
	C173.035858,835.798218 171.030334,824.423462 169.034637,813.046936 
	C164.271057,785.892090 159.637039,758.713745 154.716705,731.587341 
	C149.619156,703.483948 144.341370,675.412231 138.944473,647.364685 
	C136.887146,636.672852 134.330795,626.075134 131.890961,615.459961 
	C131.201630,612.460754 129.654984,610.378418 125.938263,611.045471 
	C115.704140,612.882202 105.438118,614.540344 95.196770,616.337891 
	C76.990273,619.533325 58.784775,622.735840 40.594032,626.019409 
	C27.757183,628.336487 14.945398,630.792542 1.840751,633.146118 
	C1.372718,633.070374 1.186359,633.035156 1.000000,633.000000 
	C1.000000,422.406403 1.000000,211.812820 1.000000,1.000000 
	C196.025787,1.000000 391.051636,1.000000 586.302612,1.295735 
	C566.078979,6.392510 552.893555,19.586088 546.669983,38.934631 
	C540.329285,58.647259 547.478943,76.185974 559.264709,92.512520 
	C558.012268,93.074028 557.046692,93.748558 555.992920,93.941605 
	C546.591553,95.663857 537.085449,96.909279 527.776489,99.026253 
	C461.146790,114.178650 405.533417,148.101562 360.079529,198.756561 
	C330.214752,232.038635 308.275909,270.155029 293.419739,312.329956 
	C284.877441,336.580505 278.194763,361.386993 276.320679,387.036896 
	C274.830078,407.437653 275.531494,427.992584 274.950439,448.470306 
	C274.819855,453.072021 276.387024,454.020386 280.640839,453.958527 
	C296.469696,453.728271 312.306519,453.712006 328.134399,453.973999 
	C332.291290,454.042816 333.571503,452.486694 334.009460,448.714600 
	C336.221405,429.663635 338.185120,410.570007 341.016327,391.607849 
	C346.239838,356.622711 355.826141,322.824646 369.856995,290.296326 
	C404.534943,209.900696 463.693115,154.968033 544.291809,122.286499 
	C549.926636,120.001663 555.676453,118.000534 561.372803,115.867470 
	C560.692627,117.757172 559.623047,118.777786 558.458191,119.674545 
	C548.303284,127.491928 537.949097,135.062408 527.998657,143.131119 
	C498.499878,167.051407 471.855408,193.768921 449.809937,224.817825 
	C426.862854,257.136627 412.079376,293.318268 401.106384,331.081940 
	C390.183319,368.673767 384.766602,407.317596 381.195831,446.229004 
	C380.599854,452.723114 381.881470,453.988739 388.407227,453.987091 
	C564.061035,453.942047 739.714905,453.893127 915.368713,453.844879 
	C917.130737,453.844391 918.892822,453.844757 920.886108,453.844757 
	C926.832764,365.497375 904.252319,285.928864 850.382202,216.747726 
	C796.471802,147.514771 725.400879,105.651047 637.821716,92.952873 
	C637.854797,92.605324 637.761047,92.052635 637.969421,91.660431 
	C639.057861,89.611885 640.138306,87.550606 641.375427,85.590919 
	C648.654541,74.060722 652.907776,61.798775 651.034729,47.899509 
	C648.615906,29.950378 640.013306,16.001703 624.042786,7.263146 
	C618.791687,4.389924 612.704712,3.044209 607.000000,1.000005 
	C731.604370,1.000000 856.208801,1.000000 981.000000,1.000000 
	C981.000000,158.025772 981.000000,315.051636 980.531372,472.534698 
	C725.175903,472.991913 470.289093,472.991913 215.389557,472.991913 
	C215.389557,495.824860 215.389557,518.033691 215.389557,540.831604 
	C218.067581,540.831604 220.363266,540.831726 222.658936,540.831665 
	C473.110474,540.825867 723.562012,540.819580 974.013550,540.821960 
	C976.342346,540.821960 978.671204,540.938110 981.000000,541.000000 
M618.193909,608.727295 
	C579.458008,623.352905 540.713562,637.956055 501.995300,652.628174 
	C496.210846,654.820129 490.456635,656.675354 484.123901,656.006348 
	C476.869812,655.239990 469.599670,654.592285 462.323608,654.074646 
	C447.590881,653.026672 432.856232,651.978943 418.109894,651.154602 
	C397.378815,649.995728 376.634583,649.074036 355.899841,647.977844 
	C349.511841,647.640198 343.136414,647.064331 335.586060,646.512024 
	C338.302734,645.439697 340.007111,644.562561 341.816803,644.083191 
	C371.026581,636.346863 400.279572,628.771729 429.455872,620.911804 
	C441.893341,617.561157 454.227814,613.799988 466.508362,609.907471 
	C472.412201,608.036133 477.037231,604.442566 479.046692,598.083069 
	C484.311737,581.420288 473.501221,565.259949 456.175049,565.148010 
	C435.869720,565.016785 415.557343,565.716492 395.250641,566.171631 
	C386.774963,566.361572 378.303589,566.800293 369.834503,567.213379 
	C351.415558,568.111694 333.002686,569.140747 314.580780,569.970947 
	C302.947357,570.495239 291.285339,570.495300 279.668671,571.238831 
	C273.116150,571.658264 266.321259,572.192322 260.170288,574.263123 
	C240.575134,580.859863 221.179276,588.063538 201.806229,595.299927 
	C187.697937,600.569763 173.740967,606.245605 159.731644,611.778748 
	C156.501404,613.054565 154.447113,615.197510 155.040497,619.017456 
	C155.497421,621.958862 155.905914,624.907776 156.363251,627.849121 
	C158.902283,644.178894 161.476044,660.503418 163.986771,676.837524 
	C166.472382,693.008179 168.839020,709.197266 171.363525,725.361755 
	C174.525055,745.605103 177.762360,765.836731 181.039703,786.061646 
	C181.855652,791.097046 182.951309,796.087219 183.918396,801.098145 
	C184.419922,801.172424 184.921432,801.246643 185.422943,801.320923 
	C187.243698,799.253296 189.076233,797.195923 190.883026,795.116150 
	C196.443802,788.715210 201.671768,781.984863 207.634689,775.984314 
	C214.451035,769.125122 222.311157,765.448975 232.847626,765.514343 
	C307.511078,765.978027 382.178711,765.763855 456.845032,765.765381 
	C486.132721,765.765930 486.324738,766.106201 511.859619,751.716736 
	C577.564514,714.690491 639.703552,672.089600 701.750183,629.366150 
	C709.624329,623.944275 711.688660,616.213440 710.020508,607.066406 
	C707.425049,592.834473 692.208923,578.788269 676.684998,585.740417 
	C674.134399,586.882690 671.257263,587.276794 668.650940,588.316956 
	C652.039185,594.946838 635.461060,601.660767 618.193909,608.727295 
z"/>
<path fill="#AB8A62" opacity="1.000000" stroke="none" 
	d="
M606.531616,1.000005 
	C612.704712,3.044209 618.791687,4.389924 624.042786,7.263146 
	C640.013306,16.001703 648.615906,29.950378 651.034729,47.899509 
	C652.907776,61.798775 648.654541,74.060722 641.375427,85.590919 
	C640.138306,87.550606 639.057861,89.611885 637.969421,91.660431 
	C637.761047,92.052635 637.854797,92.605324 637.821716,92.952873 
	C725.400879,105.651047 796.471802,147.514771 850.382202,216.747726 
	C904.252319,285.928864 926.832764,365.497375 920.886108,453.844757 
	C918.892822,453.844757 917.130737,453.844391 915.368713,453.844879 
	C739.714905,453.893127 564.061035,453.942047 388.407227,453.987091 
	C381.881470,453.988739 380.599854,452.723114 381.195831,446.229004 
	C384.766602,407.317596 390.183319,368.673767 401.106384,331.081940 
	C412.079376,293.318268 426.862854,257.136627 449.809937,224.817825 
	C471.855408,193.768921 498.499878,167.051407 527.998657,143.131119 
	C537.949097,135.062408 548.303284,127.491928 558.458191,119.674545 
	C559.623047,118.777786 560.692627,117.757172 561.372803,115.867470 
	C555.676453,118.000534 549.926636,120.001663 544.291809,122.286499 
	C463.693115,154.968033 404.534943,209.900696 369.856995,290.296326 
	C355.826141,322.824646 346.239838,356.622711 341.016327,391.607849 
	C338.185120,410.570007 336.221405,429.663635 334.009460,448.714600 
	C333.571503,452.486694 332.291290,454.042816 328.134399,453.973999 
	C312.306519,453.712006 296.469696,453.728271 280.640839,453.958527 
	C276.387024,454.020386 274.819855,453.072021 274.950439,448.470306 
	C275.531494,427.992584 274.830078,407.437653 276.320679,387.036896 
	C278.194763,361.386993 284.877441,336.580505 293.419739,312.329956 
	C308.275909,270.155029 330.214752,232.038635 360.079529,198.756561 
	C405.533417,148.101562 461.146790,114.178650 527.776489,99.026253 
	C537.085449,96.909279 546.591553,95.663857 555.992920,93.941605 
	C557.046692,93.748558 558.012268,93.074028 559.264709,92.512520 
	C547.478943,76.185974 540.329285,58.647259 546.669983,38.934631 
	C552.893555,19.586088 566.078979,6.392510 586.763855,1.295735 
	C593.354431,1.000000 599.708801,1.000000 606.531616,1.000005 
z"/>
<path fill="#AB8A63" opacity="1.000000" stroke="none" 
	d="
M981.000000,540.531372 
	C978.671204,540.938110 976.342346,540.821960 974.013550,540.821960 
	C723.562012,540.819580 473.110474,540.825867 222.658936,540.831665 
	C220.363266,540.831726 218.067581,540.831604 215.389557,540.831604 
	C215.389557,518.033691 215.389557,495.824860 215.389557,472.991913 
	C470.289093,472.991913 725.175903,472.991913 980.531372,472.995972 
	C981.000000,495.354218 981.000000,517.708435 981.000000,540.531372 
z"/>
<path fill="#AB8A62" opacity="1.000000" stroke="none" 
	d="
M2.122427,633.186584 
	C14.945398,630.792542 27.757183,628.336487 40.594032,626.019409 
	C58.784775,622.735840 76.990273,619.533325 95.196770,616.337891 
	C105.438118,614.540344 115.704140,612.882202 125.938263,611.045471 
	C129.654984,610.378418 131.201630,612.460754 131.890961,615.459961 
	C134.330795,626.075134 136.887146,636.672852 138.944473,647.364685 
	C144.341370,675.412231 149.619156,703.483948 154.716705,731.587341 
	C159.637039,758.713745 164.271057,785.892090 169.034637,813.046936 
	C171.030334,824.423462 173.035858,835.798218 175.280060,848.556091 
	C118.512650,859.188843 61.983562,869.776917 5.227240,880.682495 
	C3.670067,881.000000 2.340133,881.000000 1.005100,881.000000 
	C1.000000,825.312439 1.000000,769.624878 1.293266,713.171997 
	C1.695417,697.904297 1.804302,683.401855 1.917820,668.440552 
	C1.989111,656.383301 2.055769,644.784973 2.122427,633.186584 
z"/>
<path fill="#AF997F" opacity="1.000000" stroke="none" 
	d="
M1.913188,668.899414 
	C1.804302,683.401855 1.695417,697.904297 1.293266,712.703369 
	C1.000000,698.645752 1.000000,684.291565 1.228338,669.443848 
	C1.456675,668.950439 1.913188,668.899414 1.913188,668.899414 
z"/>
<path fill="#CBBCAB" opacity="1.000000" stroke="none" 
	d="
M1.917820,668.440552 
	C1.913188,668.899414 1.456675,668.950439 1.228338,668.975220 
	C1.000000,657.312439 1.000000,645.624878 1.000000,633.468628 
	C1.186359,633.035156 1.372718,633.070374 1.840753,633.146118 
	C2.055769,644.784973 1.989111,656.383301 1.917820,668.440552 
z"/>
<path fill="#AB8A62" opacity="1.000000" stroke="none" 
	d="
M618.532837,608.537170 
	C635.461060,601.660767 652.039185,594.946838 668.650940,588.316956 
	C671.257263,587.276794 674.134399,586.882690 676.684998,585.740417 
	C692.208923,578.788269 707.425049,592.834473 710.020508,607.066406 
	C711.688660,616.213440 709.624329,623.944275 701.750183,629.366150 
	C639.703552,672.089600 577.564514,714.690491 511.859619,751.716736 
	C486.324738,766.106201 486.132721,765.765930 456.845032,765.765381 
	C382.178711,765.763855 307.511078,765.978027 232.847626,765.514343 
	C222.311157,765.448975 214.451035,769.125122 207.634689,775.984314 
	C201.671768,781.984863 196.443802,788.715210 190.883026,795.116150 
	C189.076233,797.195923 187.243698,799.253296 185.422943,801.320923 
	C184.921432,801.246643 184.419922,801.172424 183.918396,801.098145 
	C182.951309,796.087219 181.855652,791.097046 181.039703,786.061646 
	C177.762360,765.836731 174.525055,745.605103 171.363525,725.361755 
	C168.839020,709.197266 166.472382,693.008179 163.986771,676.837524 
	C161.476044,660.503418 158.902283,644.178894 156.363251,627.849121 
	C155.905914,624.907776 155.497421,621.958862 155.040497,619.017456 
	C154.447113,615.197510 156.501404,613.054565 159.731644,611.778748 
	C173.740967,606.245605 187.697937,600.569763 201.806229,595.299927 
	C221.179276,588.063538 240.575134,580.859863 260.170288,574.263123 
	C266.321259,572.192322 273.116150,571.658264 279.668671,571.238831 
	C291.285339,570.495300 302.947357,570.495239 314.580780,569.970947 
	C333.002686,569.140747 351.415558,568.111694 369.834503,567.213379 
	C378.303589,566.800293 386.774963,566.361572 395.250641,566.171631 
	C415.557343,565.716492 435.869720,565.016785 456.175049,565.148010 
	C473.501221,565.259949 484.311737,581.420288 479.046692,598.083069 
	C477.037231,604.442566 472.412201,608.036133 466.508362,609.907471 
	C454.227814,613.799988 441.893341,617.561157 429.455872,620.911804 
	C400.279572,628.771729 371.026581,636.346863 341.816803,644.083191 
	C340.007111,644.562561 338.302734,645.439697 335.586060,646.512024 
	C343.136414,647.064331 349.511841,647.640198 355.899841,647.977844 
	C376.634583,649.074036 397.378815,649.995728 418.109894,651.154602 
	C432.856232,651.978943 447.590881,653.026672 462.323608,654.074646 
	C469.599670,654.592285 476.869812,655.239990 484.123901,656.006348 
	C490.456635,656.675354 496.210846,654.820129 501.995300,652.628174 
	C540.713562,637.956055 579.458008,623.352905 618.532837,608.537170 
z"/>
</svg>